<svg width="96" height="24" fill="none" xmlns="http://www.w3.org/2000/svg"><path fill-rule="evenodd" clip-rule="evenodd" d="M23.535 10.406c2.422-2.432.82-6.09 4.58-8.596-2.08 2.198-1.715 3.57-2.483 6.416 2.145-.223 4.708-1.085 4.708-3.651 0-1.562-.678-3.6.034-4.575-2.678.297-7.27.861-7.27 3.919 0 1.475 1.115 2.54 1.101 3.776 0 .605-.521 1.24-1.377 1.562l.702 1.147.005.002z" fill="#39C"/><path fill-rule="evenodd" clip-rule="evenodd" d="M34.417 9.26v3.093h4.098v11.37h4.021v-11.37h4.096V9.26H34.417zm51.021 0l-6.565 14.463h3.894l1.222-2.868h6.904l1.224 2.868H96L89.434 9.26h-3.996zm-.237 8.728l2.235-5.267 2.235 5.262-4.47.005zM23.75 23.723h4.02v-4.805l5.904-9.658h-4.251l-3.664 5.994-3.665-5.994h-4.249l5.904 9.658v4.805zm-20.009 0H0V9.26h3.36l5.19 8.32 5.19-8.32h3.36v14.463h-3.74v-7.648l-3.893 6.113H7.633l-3.892-6.113v7.648zm59.314-7.233c0-4.146-3.27-7.507-8.22-7.507-4.952 0-8.219 3.36-8.219 7.507S49.886 24 54.834 24c4.95 0 8.221-3.36 8.221-7.51zm-8.22 4.265c-2.565 0-4.173-2.008-4.173-4.265 0-2.256 1.608-4.262 4.172-4.262 2.565 0 4.175 2.008 4.175 4.262 0 2.254-1.608 4.265-4.175 4.265zm13.241 2.968h-3.944V9.26h3.307l6.744 7.973V9.26h3.945v14.463H74.82l-6.744-7.974v7.974z" fill="#404040"/></svg>