<svg viewBox="0 0 864 312" xmlns="http://www.w3.org/2000/svg"><path d="M4 4h856v304H4z"/><path d="M0 0v312h864V0zm862 310H2V2h860z" fill="#d2d2d2"/><path d="M2 310h860V2H2zM4 4h856v304H4z" fill="#d2d2d2"/><path d="M390.4 154.9v88.9H375v-69.7h-.2l-27.6 69.7H337l-28.3-69.7h-.2v69.7h-14.3v-88.9h22.1l25.5 65.9h.4l27-65.9zm12.9 6.8a8 8 0 012.7-6.2 8.91 8.91 0 016.4-2.5 9.3 9.3 0 016.6 2.6 8.54 8.54 0 012.6 6.2 7.9 7.9 0 01-2.7 6.1 9.7 9.7 0 01-13 0 8.71 8.71 0 01-2.6-6.2zm16.6 18.4v63.7h-15v-63.7zm45.5 52.8a21.64 21.64 0 007.4-1.5 28.07 28.07 0 007.4-4.1v13.9a29 29 0 01-8.1 3.1 44.38 44.38 0 01-10 1.1c-9.4 0-17-3-22.9-8.9s-8.8-13.5-8.8-22.7c0-10.2 3-18.7 9-25.3s14.5-9.9 25.5-9.9a36.06 36.06 0 018.5 1.1 27.23 27.23 0 016.8 2.5v14.4a29.31 29.31 0 00-7.1-3.9 21.11 21.11 0 00-7.4-1.4c-5.9 0-10.7 1.9-14.3 5.8s-5.5 9-5.5 15.6c0 6.4 1.7 11.5 5.2 15.1 3.5 3.3 8.3 5.1 14.3 5.1zm57.5-53.9a28.8 28.8 0 013.2.2 20.76 20.76 0 012.4.6V195a12 12 0 00-3.4-1.6 17.28 17.28 0 00-5.5-.8 11.45 11.45 0 00-9.3 4.6c-2.5 3.1-3.8 7.9-3.8 14.3v32.2h-15V180h15v10h.2a17 17 0 016.2-8.1 17.33 17.33 0 0110-2.9zm6.4 33.8c0-10.5 3-18.9 8.9-25s14.2-9.2 24.8-9.2c10 0 17.7 3 23.3 8.9s8.4 13.9 8.4 24c0 10.3-3 18.6-8.9 24.7s-14 9.2-24.3 9.2c-9.9 0-17.7-2.9-23.5-8.7s-8.7-13.8-8.7-23.9zm15.7-.4c0 6.7 1.5 11.7 4.5 15.2s7.3 5.3 13 5.3c5.5 0 9.6-1.8 12.5-5.3s4.3-8.7 4.3-15.6-1.5-12-4.4-15.5-7.1-5.2-12.4-5.2c-5.5 0-9.8 1.8-12.8 5.5-3.2 3.6-4.7 8.8-4.7 15.6zm72.1-15.6a6.93 6.93 0 002 5.1c1.4 1.2 4.4 2.8 9 4.6q9 3.6 12.6 8.1a16.84 16.84 0 013.6 10.9 17.36 17.36 0 01-6.9 14.4c-4.6 3.6-10.8 5.5-18.7 5.5a49.53 49.53 0 01-16.9-3.4v-14.7a36.58 36.58 0 008.8 4.5 26.17 26.17 0 008.6 1.7c3.4 0 5.9-.5 7.5-1.4s2.4-2.5 2.4-4.8a6.39 6.39 0 00-2.5-5.2c-1.7-1.4-4.8-3.1-9.5-4.9-5.5-2.3-9.5-4.9-11.8-7.8a17.24 17.24 0 01-3.5-11 17.71 17.71 0 016.8-14.2c4.6-3.7 10.5-5.5 17.8-5.5a42.69 42.69 0 017.5.7 30.62 30.62 0 016.9 1.9v14.3a31.69 31.69 0 00-6.9-3.4 22 22 0 00-7.9-1.4 11.62 11.62 0 00-6.7 1.7 4.77 4.77 0 00-2.2 4.3zm33.8 16c0-10.5 3-18.9 8.9-25s14.2-9.2 24.8-9.2c10 0 17.7 3 23.3 8.9s8.4 13.9 8.4 24c0 10.3-3 18.6-8.9 24.7s-14 9.2-24.3 9.2c-9.9 0-17.7-2.9-23.5-8.7s-8.7-13.8-8.7-23.9zm15.6-.4c0 6.7 1.5 11.7 4.5 15.2s7.3 5.3 13 5.3c5.5 0 9.6-1.8 12.5-5.3s4.3-8.7 4.3-15.6-1.5-12-4.4-15.5-7.1-5.2-12.4-5.2c-5.5 0-9.8 1.8-12.8 5.5-3.2 3.6-4.7 8.8-4.7 15.6zm99.6-20.1h-22.3v51.4h-15.2v-51.4h-10.7V180h10.7v-8.9c0-6.7 2.2-12.2 6.5-16.5s9.9-6.4 16.8-6.4a34.25 34.25 0 014.8.3 29.59 29.59 0 013.7.8v13c-.5-.3-1.4-.6-2.6-1.1a14 14 0 00-4.3-.6 9.41 9.41 0 00-7.3 2.9c-1.7 2-2.5 4.9-2.5 8.7v7.7H766v-14.3l15.1-4.6v18.9h15.2v12.3h-15.2V222c0 3.9.7 6.7 2.1 8.3s3.7 2.4 6.7 2.4a9.89 9.89 0 003.1-.6 13.54 13.54 0 003.2-1.5V243a21.64 21.64 0 01-4.7 1.5 29.37 29.37 0 01-6.5.7c-6.3 0-11.1-1.7-14.2-5s-4.7-8.4-4.7-15.2zm-421.7-65.4c-4.7 2.5-10.6 3.7-17.7 3.7-9.1 0-16.5-2.9-22-8.7s-8.3-13.3-8.3-22.7c0-10.1 3.1-18.2 9.3-24.4s14-9.3 23.5-9.3a39.5 39.5 0 0115.2 2.6v10.4a27.08 27.08 0 00-14.1-3.8c-6.8 0-12.4 2.2-16.6 6.5s-6.4 10.2-6.4 17.5c0 6.9 2 12.5 5.9 16.6s9.2 6.2 15.6 6.2a28.33 28.33 0 0015.5-4.2v9.6zm51.7 2.6h-13l-17.5-21.9h-.2v21.9h-10.2v-45h10.2v20.7h.2l16.5-20.7h12.5L375.9 106zm40.9 0h-9.9v-7h-.2c-3.1 5.4-7.7 8.1-13.7 8.1-4.4 0-7.9-1.2-10.4-3.6a12.65 12.65 0 01-3.8-9.5c0-8.5 4.9-13.4 14.7-14.9l13.4-1.9c0-6.4-3-9.6-9.1-9.6a21.54 21.54 0 00-14.5 5.5v-8.9a31.52 31.52 0 0116.4-4.2q17.1 0 17.1 16.8zm-9.9-22.1l-9.4 1.3a16 16 0 00-6.6 2.1c-1.5 1-2.2 2.9-2.2 5.5a6.19 6.19 0 002 4.7 8.1 8.1 0 005.5 1.8 10 10 0 007.7-3.3 11.75 11.75 0 003.1-8.2v-3.9zm60.3 22.1h-10.2v-17c-5.1 2.8-9.8 4.2-14.2 4.2-10.1 0-15.2-5.5-15.2-16.5V84.5h10v14.3c0 6.4 2.5 9.5 7.5 9.5a25.86 25.86 0 0011.9-3.3V84.5h10.2zm47.9 0h-9.9v-7h-.2c-3.1 5.4-7.7 8.1-13.7 8.1-4.4 0-7.9-1.2-10.4-3.6a12.65 12.65 0 01-3.8-9.5c0-8.5 4.9-13.4 14.7-14.9l13.4-1.9c0-6.4-3-9.6-9.1-9.6a21.54 21.54 0 00-14.5 5.5v-8.9a31.52 31.52 0 0116.4-4.2q17.1 0 17.1 16.8zm-9.9-22.1l-9.4 1.3a16 16 0 00-6.6 2.1c-1.5 1-2.2 2.9-2.2 5.5a6.19 6.19 0 002 4.7 8.1 8.1 0 005.5 1.8 10 10 0 007.7-3.3 11.75 11.75 0 003.1-8.2v-3.9zm53-14.7h-12.8v36.9h-10.2V92.7h-12.9v-8.1h36v8.1zm8 36.8v-45h10.2v16.6h12c4.8 0 8.6 1.2 11.4 3.7s4.2 5.9 4.2 10.2c0 4.5-1.4 8-4.2 10.6a14.91 14.91 0 01-10.6 3.9zm10.2-21v13.7h9.3c5.2 0 7.7-2.4 7.7-7.1q0-6.6-7.8-6.6zm62.2 21v-45h21.5c4.8 0 8.7 1 11.5 2.9a9.28 9.28 0 014.2 8c0 5.7-2.9 9.2-8.8 10.5 7 .9 10.5 4.3 10.5 10.4a12.19 12.19 0 01-4.4 9.4 16.52 16.52 0 01-11 3.8zM669 91.7v11.2h9c5.1 0 7.6-2 7.6-5.9 0-3.5-2.2-5.3-6.7-5.3zm0 18.3v12.3h10.5q7.8 0 7.8-6.3c0-4-2.8-5.9-8.5-5.9H669z" fill="#fff"/><path d="M64.3 64.5h85.3v85.3H64.3z" fill="#f25022"/><path d="M158.6 64.5h85.3v85.3h-85.3z" fill="#7fba00"/><path d="M64.3 158.7h85.3V244H64.3z" fill="#00a4ef"/><path d="M158.6 158.7h85.3V244h-85.3z" fill="#ffb900"/></svg>